<svg xmlns="http://www.w3.org/2000/svg" viewBox="0 100 900 195" preserveAspectRatio="xMinYMid meet"><defs><style>.cls-1{fill:#00a9db}.cls-2{fill:#2e3192}</style></defs><g><path class="cls-2" d="M384.39,190.79c0,26.26-23.85,35.29-42.86,35.29-33.03,0-46.56-18.69-49.14-38.19h23.2c3.06,11.12,9.83,16.76,25.78,16.76,13.05,0,19.82-4.83,19.82-12.89s-7.9-9.51-27.71-13.86c-20.14-4.19-38.19-10.8-38.19-33.03,0-23.69,21.11-35.45,42.54-35.45,30.29,0,42.86,16.27,45.44,34.96h-23.36c-2.42-7.9-8.06-13.53-21.91-13.53s-19.5,5.8-19.5,13.05c0,6.61,5.64,8.22,20.46,11.44,30.13,6.44,45.44,13.05,45.44,35.45Z"/><path class="cls-2" d="M543.9,190.79c0,26.26-23.85,35.29-42.86,35.29-33.03,0-46.56-18.69-49.14-38.19h23.2c3.06,11.12,9.83,16.76,25.78,16.76,13.05,0,19.82-4.83,19.82-12.89s-7.9-9.51-27.71-13.86c-20.14-4.19-38.19-10.8-38.19-33.03,0-23.69,21.11-35.45,42.54-35.45,30.29,0,42.86,16.27,45.44,34.96h-23.36c-2.42-7.9-8.06-13.53-21.91-13.53s-19.5,5.8-19.5,13.05c0,6.61,5.64,8.22,20.46,11.44,30.13,6.44,45.44,13.05,45.44,35.45Z"/><path class="cls-2" d="M645.72,133.27h-32.55v90.87h-23.04v-90.87h-32.39v-21.91h87.97v21.91Z"/><path class="cls-2" d="M791.69,127.95l-47.53,96.19h-26.1l45.92-90.87h-52.85v-21.91h80.56v16.6Z"/><path class="cls-2" d="M893.68,150.99c0,23.04-16.44,42.05-39.96,73.15h-27.07l30.61-39.15c-4.35,2.09-8.38,3.22-14.02,3.22-18.85,0-37.06-12.41-37.06-36.9s19.5-41.89,43.66-41.89,43.83,15.95,43.83,41.57ZM829.39,151.32c0,12.25,8.86,19.33,20.46,19.33s20.46-7.25,20.46-19.5-8.7-19.82-20.3-19.82-20.62,7.73-20.62,19.98Z"/><rect class="cls-2" x="406.62" y="151.64" width="23.04" height="72.5"/><rect class="cls-1" x="406.62" y="111.36" width="23.04" height="23.53"/></g><g><rect class="cls-1" x="147.08" y="149.46" width="29.22" height="30.18"/><rect class="cls-1" x="147.06" y="208.87" width="29.22" height="30.18"/><path class="cls-1" d="M236.5,165.45h-29.22c0-24.64-20.07-44.68-44.71-44.68s-44.68,20.03-44.68,44.68v14.19h-29.22v-14.19c0-40.75,33.15-73.9,73.9-73.9s73.93,33.15,73.93,73.9Z"/><path class="cls-1" d="M235.59,208.87v14.19c0,40.75-33.15,73.9-73.9,73.9s-73.93-33.15-73.93-73.9h29.22c0,24.61,20.07,44.68,44.71,44.68s44.68-20.07,44.68-44.68v-14.19h29.22Z"/><rect class="cls-1" x="117.89" y="179.64" width="29.19" height="29.22"/><rect class="cls-1" x="176.3" y="179.64" width="30.07" height="29.22"/></g><g><path class="cls-2" d="M292.39,285.96v-38.39h13.6c2.54,0,4.77.48,6.7,1.44,1.92.96,3.43,2.34,4.51,4.12,1.08,1.79,1.62,3.9,1.62,6.34s-.54,4.49-1.62,6.26c-1.08,1.77-2.58,3.14-4.48,4.1-1.91.96-4.15,1.44-6.72,1.44h-8.5v14.68h-5.1ZM297.49,266.64h8.66c1.51,0,2.83-.29,3.97-.88,1.13-.58,2.02-1.43,2.65-2.52.64-1.1.95-2.37.95-3.81s-.32-2.76-.95-3.84c-.64-1.08-1.52-1.91-2.65-2.5-1.13-.58-2.46-.88-3.97-.88h-8.66v14.43Z"/><path class="cls-2" d="M326.34,285.96v-27.77h4.74v5.1l-.52-.72c.65-1.58,1.65-2.76,2.99-3.53,1.34-.77,2.97-1.16,4.89-1.16h1.7v4.58h-2.42c-1.96,0-3.54.6-4.74,1.8-1.2,1.2-1.8,2.92-1.8,5.15v16.54h-4.84Z"/><path class="cls-2" d="M358.49,286.58c-2.68,0-5.08-.64-7.19-1.91-2.11-1.27-3.77-3.01-4.97-5.23-1.2-2.22-1.8-4.7-1.8-7.45s.6-5.26,1.8-7.42c1.2-2.16,2.82-3.87,4.84-5.13,2.03-1.25,4.33-1.88,6.9-1.88,2.06,0,3.89.37,5.49,1.11,1.6.74,2.95,1.74,4.07,2.99,1.12,1.25,1.97,2.68,2.58,4.28.6,1.6.9,3.26.9,4.97,0,.41-.03.84-.08,1.29-.05.45-.11.89-.18,1.34h-22.77v-4.17h19.99l-2.32,1.85c.34-1.79.19-3.38-.46-4.79-.65-1.41-1.61-2.52-2.89-3.35-1.27-.82-2.71-1.24-4.33-1.24s-3.09.42-4.43,1.26c-1.34.84-2.38,2.02-3.12,3.53-.74,1.51-1.04,3.32-.9,5.41-.14,2.03.18,3.81.95,5.33.77,1.53,1.87,2.71,3.3,3.55,1.42.84,2.98,1.26,4.66,1.26,1.85,0,3.42-.43,4.69-1.29,1.27-.86,2.3-1.96,3.09-3.3l4.02,2.06c-.55,1.27-1.4,2.43-2.55,3.48-1.15,1.05-2.52,1.88-4.1,2.5-1.58.62-3.32.93-5.2.93ZM355.46,252.98l4.07-8.14h6.49l-5.77,8.14h-4.79Z"/><path class="cls-2" d="M385.86,285.96l-10.87-27.77h5.36l8.71,23.5h-1.85l8.76-23.5h5.36l-10.92,27.77h-4.53Z"/><path class="cls-2" d="M419.14,286.58c-2.68,0-5.08-.64-7.19-1.91-2.11-1.27-3.77-3.01-4.97-5.23-1.2-2.22-1.8-4.7-1.8-7.45s.6-5.26,1.8-7.42c1.2-2.16,2.82-3.87,4.84-5.13,2.03-1.25,4.33-1.88,6.9-1.88,2.06,0,3.89.37,5.49,1.11,1.6.74,2.95,1.74,4.07,2.99,1.12,1.25,1.97,2.68,2.58,4.28.6,1.6.9,3.26.9,4.97,0,.41-.03.84-.08,1.29-.05.45-.11.89-.18,1.34h-22.77v-4.17h19.99l-2.32,1.85c.34-1.79.19-3.38-.46-4.79-.65-1.41-1.61-2.52-2.89-3.35-1.27-.82-2.71-1.24-4.33-1.24s-3.09.42-4.43,1.26c-1.34.84-2.38,2.02-3.12,3.53-.74,1.51-1.04,3.32-.9,5.41-.14,2.03.18,3.81.95,5.33.77,1.53,1.87,2.71,3.3,3.55,1.42.84,2.98,1.26,4.66,1.26,1.85,0,3.42-.43,4.69-1.29,1.27-.86,2.3-1.96,3.09-3.3l4.02,2.06c-.55,1.27-1.4,2.43-2.55,3.48-1.15,1.05-2.52,1.88-4.1,2.5-1.58.62-3.32.93-5.2.93Z"/><path class="cls-2" d="M439.23,285.96v-27.77h4.74v5.41l-.77-.46c.69-1.75,1.79-3.12,3.32-4.1,1.53-.98,3.32-1.47,5.38-1.47s3.77.45,5.33,1.34c1.56.89,2.8,2.13,3.71,3.71.91,1.58,1.37,3.37,1.37,5.36v17.98h-4.84v-16.44c0-1.55-.28-2.85-.82-3.92-.55-1.06-1.33-1.89-2.34-2.47-1.01-.58-2.17-.88-3.48-.88s-2.47.29-3.48.88c-1.01.58-1.81,1.42-2.4,2.5-.58,1.08-.88,2.38-.88,3.89v16.44h-4.84Z"/><path class="cls-2" d="M481.74,286.27c-2.71,0-4.81-.77-6.29-2.32-1.48-1.55-2.22-3.73-2.22-6.54v-14.63h-5v-4.59h1.03c1.24,0,2.21-.38,2.91-1.13.7-.76,1.06-1.75,1.06-2.99v-2.27h4.84v6.39h6.23v4.59h-6.23v14.48c0,.93.15,1.73.44,2.42.29.69.78,1.23,1.47,1.62.69.4,1.6.59,2.73.59.24,0,.54-.02.9-.05.36-.03.7-.07,1-.1v4.23c-.45.1-.94.18-1.49.23-.55.05-1.01.08-1.39.08Z"/><path class="cls-2" d="M492.1,253.75v-6.18h4.84v6.18h-4.84ZM492.1,285.96v-27.77h4.84v27.77h-4.84Z"/><path class="cls-2" d="M518.79,286.58c-2.65,0-5.05-.63-7.21-1.88-2.16-1.25-3.89-2.98-5.18-5.18-1.29-2.2-1.93-4.69-1.93-7.47s.64-5.26,1.91-7.42c1.27-2.16,2.99-3.88,5.15-5.15,2.16-1.27,4.59-1.91,7.27-1.91s5.15.63,7.32,1.88c2.16,1.25,3.87,2.96,5.13,5.13,1.25,2.16,1.88,4.66,1.88,7.47s-.65,5.32-1.96,7.5c-1.31,2.18-3.03,3.9-5.18,5.15-2.15,1.25-4.54,1.88-7.19,1.88ZM518.79,281.94c1.75,0,3.32-.43,4.71-1.29,1.39-.86,2.49-2.04,3.3-3.56.81-1.51,1.21-3.19,1.21-5.05s-.4-3.52-1.21-5c-.81-1.48-1.91-2.64-3.3-3.5-1.39-.86-2.96-1.29-4.71-1.29s-3.27.43-4.66,1.29c-1.39.86-2.5,2.03-3.32,3.5-.82,1.48-1.24,3.14-1.24,5s.41,3.54,1.24,5.05c.82,1.51,1.93,2.7,3.32,3.56,1.39.86,2.94,1.29,4.66,1.29Z"/><path class="cls-2" d="M540.58,285.96v-27.77h4.74v5.41l-.77-.46c.69-1.75,1.79-3.12,3.32-4.1,1.53-.98,3.32-1.47,5.38-1.47s3.77.45,5.33,1.34c1.56.89,2.8,2.13,3.71,3.71.91,1.58,1.37,3.37,1.37,5.36v17.98h-4.84v-16.44c0-1.55-.28-2.85-.82-3.92-.55-1.06-1.33-1.89-2.34-2.47-1.01-.58-2.17-.88-3.48-.88s-2.47.29-3.48.88c-1.01.58-1.81,1.42-2.4,2.5-.58,1.08-.88,2.38-.88,3.89v16.44h-4.84Z"/><path class="cls-2" d="M595.71,286.58c-2.41,0-4.62-.46-6.65-1.37-2.03-.91-3.74-2.15-5.15-3.74-1.41-1.58-2.44-3.35-3.09-5.31l4.43-1.8c.93,2.47,2.31,4.37,4.15,5.69,1.84,1.32,3.99,1.98,6.47,1.98,1.51,0,2.83-.24,3.97-.72,1.13-.48,2.02-1.16,2.65-2.03.64-.88.95-1.9.95-3.07,0-1.61-.46-2.89-1.37-3.81s-2.24-1.65-3.99-2.16l-7.06-2.16c-2.78-.86-4.92-2.21-6.42-4.04-1.49-1.84-2.24-3.98-2.24-6.42,0-2.09.52-3.94,1.55-5.54,1.03-1.6,2.45-2.85,4.25-3.76,1.8-.91,3.86-1.37,6.16-1.37s4.39.41,6.26,1.24c1.87.82,3.46,1.93,4.77,3.32,1.31,1.39,2.27,2.98,2.89,4.77l-4.38,1.8c-.79-2.13-2.02-3.76-3.68-4.9-1.67-1.13-3.6-1.7-5.8-1.7-1.37,0-2.59.23-3.63.7-1.05.46-1.85,1.14-2.42,2.04s-.85,1.92-.85,3.09c0,1.41.45,2.66,1.34,3.76.89,1.1,2.25,1.94,4.07,2.52l6.44,1.91c3.02.93,5.31,2.25,6.85,3.97,1.55,1.72,2.32,3.85,2.32,6.39,0,2.1-.54,3.95-1.62,5.56-1.08,1.62-2.58,2.88-4.48,3.79-1.91.91-4.13,1.37-6.67,1.37Z"/><path class="cls-2" d="M623.95,286.58c-1.82,0-3.44-.34-4.84-1-1.41-.67-2.51-1.6-3.3-2.78-.79-1.19-1.19-2.55-1.19-4.1s.33-2.81.98-3.99c.65-1.18,1.66-2.19,3.01-3.01,1.36-.82,3.07-1.41,5.13-1.75l10.25-1.7v4.02l-9.17,1.6c-1.79.31-3.08.87-3.89,1.67-.81.81-1.21,1.81-1.21,3.01,0,1.13.45,2.08,1.37,2.83.91.76,2.05,1.13,3.43,1.13,1.75,0,3.27-.37,4.56-1.11,1.29-.74,2.29-1.74,3.01-3.01.72-1.27,1.08-2.66,1.08-4.17v-7.11c0-1.51-.55-2.74-1.65-3.68-1.1-.94-2.56-1.42-4.38-1.42-1.58,0-2.98.41-4.2,1.24-1.22.82-2.12,1.89-2.71,3.19l-4.17-2.16c.52-1.27,1.34-2.41,2.47-3.43,1.13-1.01,2.46-1.81,3.97-2.4,1.51-.58,3.09-.88,4.74-.88,2.13,0,4,.4,5.62,1.21,1.61.81,2.88,1.93,3.79,3.37.91,1.44,1.37,3.09,1.37,4.95v18.86h-4.69v-5.26l.88.36c-.58,1.07-1.38,2.02-2.4,2.86-1.01.84-2.18,1.49-3.5,1.96-1.32.46-2.77.7-4.35.7Z"/><path class="cls-2" d="M646.67,285.96v-27.77h4.74v5.41l-.77-.46c.69-1.75,1.79-3.12,3.32-4.1,1.53-.98,3.32-1.47,5.38-1.47s3.77.45,5.33,1.34c1.56.89,2.8,2.13,3.71,3.71.91,1.58,1.37,3.37,1.37,5.36v17.98h-4.84v-16.44c0-1.55-.28-2.85-.82-3.92-.55-1.06-1.33-1.89-2.34-2.47-1.01-.58-2.17-.88-3.48-.88s-2.47.29-3.48.88c-1.01.58-1.81,1.42-2.4,2.5-.58,1.08-.88,2.38-.88,3.89v16.44h-4.84Z"/><path class="cls-2" d="M689.18,286.27c-2.71,0-4.81-.77-6.29-2.32-1.48-1.55-2.22-3.73-2.22-6.54v-14.63h-5v-4.59h1.03c1.24,0,2.21-.38,2.91-1.13.7-.76,1.06-1.75,1.06-2.99v-2.27h4.84v6.39h6.23v4.59h-6.23v14.48c0,.93.15,1.73.44,2.42.29.69.78,1.23,1.47,1.62.69.4,1.6.59,2.73.59.24,0,.54-.02.9-.05.36-.03.7-.07,1-.1v4.23c-.45.1-.94.18-1.49.23-.55.05-1.01.08-1.39.08Z"/><path class="cls-2" d="M711.59,286.58c-2.68,0-5.08-.64-7.19-1.91-2.11-1.27-3.77-3.01-4.97-5.23-1.2-2.22-1.8-4.7-1.8-7.45s.6-5.26,1.8-7.42c1.2-2.16,2.82-3.87,4.84-5.13,2.03-1.25,4.33-1.88,6.9-1.88,2.06,0,3.89.37,5.49,1.11,1.6.74,2.95,1.74,4.07,2.99,1.12,1.25,1.97,2.68,2.58,4.28.6,1.6.9,3.26.9,4.97,0,.41-.03.84-.08,1.29-.05.45-.11.89-.18,1.34h-22.77v-4.17h19.99l-2.32,1.85c.34-1.79.19-3.38-.46-4.79-.65-1.41-1.61-2.52-2.89-3.35-1.27-.82-2.71-1.24-4.33-1.24s-3.09.42-4.43,1.26c-1.34.84-2.38,2.02-3.12,3.53-.74,1.51-1.04,3.32-.9,5.41-.14,2.03.18,3.81.95,5.33.77,1.53,1.87,2.71,3.3,3.55,1.42.84,2.98,1.26,4.66,1.26,1.85,0,3.42-.43,4.69-1.29,1.27-.86,2.3-1.96,3.09-3.3l4.02,2.06c-.55,1.27-1.4,2.43-2.55,3.48-1.15,1.05-2.52,1.88-4.1,2.5-1.58.62-3.32.93-5.2.93ZM708.55,252.98l4.07-8.14h6.49l-5.77,8.14h-4.79Z"/><path class="cls-2" d="M749.2,285.96v-33.75h-10.41v-4.64h25.76v4.64h-10.25v33.75h-5.1Z"/><path class="cls-2" d="M766.98,285.96v-27.77h4.74v5.1l-.52-.72c.65-1.58,1.65-2.76,2.99-3.53,1.34-.77,2.97-1.16,4.89-1.16h1.7v4.58h-2.42c-1.96,0-3.54.6-4.74,1.8-1.2,1.2-1.8,2.92-1.8,5.15v16.54h-4.84Z"/><path class="cls-2" d="M794.49,286.58c-1.82,0-3.44-.34-4.84-1-1.41-.67-2.51-1.6-3.3-2.78-.79-1.19-1.19-2.55-1.19-4.1s.33-2.81.98-3.99c.65-1.18,1.66-2.19,3.01-3.01,1.36-.82,3.07-1.41,5.13-1.75l10.25-1.7v4.02l-9.17,1.6c-1.79.31-3.08.87-3.89,1.67-.81.81-1.21,1.81-1.21,3.01,0,1.13.45,2.08,1.37,2.83.91.76,2.05,1.13,3.43,1.13,1.75,0,3.27-.37,4.56-1.11,1.29-.74,2.29-1.74,3.01-3.01.72-1.27,1.08-2.66,1.08-4.17v-7.11c0-1.51-.55-2.74-1.65-3.68-1.1-.94-2.56-1.42-4.38-1.42-1.58,0-2.98.41-4.2,1.24-1.22.82-2.12,1.89-2.71,3.19l-4.17-2.16c.52-1.27,1.34-2.41,2.47-3.43,1.13-1.01,2.46-1.81,3.97-2.4,1.51-.58,3.09-.88,4.74-.88,2.13,0,4,.4,5.62,1.21,1.61.81,2.88,1.93,3.79,3.37.91,1.44,1.37,3.09,1.37,4.95v18.86h-4.69v-5.26l.88.36c-.58,1.07-1.38,2.02-2.4,2.86-1.01.84-2.18,1.49-3.5,1.96-1.32.46-2.77.7-4.35.7Z"/><path class="cls-2" d="M824.48,285.96l-10.87-27.77h5.36l8.71,23.5h-1.85l8.76-23.5h5.36l-10.92,27.77h-4.53Z"/><path class="cls-2" d="M852.61,286.58c-1.82,0-3.44-.34-4.84-1-1.41-.67-2.51-1.6-3.3-2.78-.79-1.19-1.19-2.55-1.19-4.1s.33-2.81.98-3.99c.65-1.18,1.66-2.19,3.01-3.01,1.36-.82,3.07-1.41,5.13-1.75l10.25-1.7v4.02l-9.17,1.6c-1.79.31-3.08.87-3.89,1.67-.81.81-1.21,1.81-1.21,3.01,0,1.13.45,2.08,1.37,2.83.91.76,2.05,1.13,3.43,1.13,1.75,0,3.27-.37,4.56-1.11,1.29-.74,2.29-1.74,3.01-3.01.72-1.27,1.08-2.66,1.08-4.17v-7.11c0-1.51-.55-2.74-1.65-3.68-1.1-.94-2.56-1.42-4.38-1.42-1.58,0-2.98.41-4.2,1.24-1.22.82-2.12,1.89-2.71,3.19l-4.17-2.16c.52-1.27,1.34-2.41,2.47-3.43,1.13-1.01,2.46-1.81,3.97-2.4,1.51-.58,3.09-.88,4.74-.88,2.13,0,4,.4,5.62,1.21,1.61.81,2.88,1.93,3.79,3.37.91,1.44,1.37,3.09,1.37,4.95v18.86h-4.69v-5.26l.88.36c-.58,1.07-1.38,2.02-2.4,2.86-1.01.84-2.18,1.49-3.5,1.96-1.32.46-2.77.7-4.35.7Z"/><path class="cls-2" d="M875.34,253.75v-6.18h4.84v6.18h-4.84ZM875.34,285.96v-27.77h4.84v27.77h-4.84Z"/><path class="cls-2" d="M888.83,285.96v-39h4.84v39h-4.84Z"/></g></svg>
